<?xml version="1.0" encoding="iso-8859-1"?>
<!-- Generator: Adobe Illustrator 19.0.0, SVG Export Plug-In . SVG Version: 6.00 Build 0)  -->
<svg version="1.1" id="Capa_1" xmlns="http://www.w3.org/2000/svg" xmlns:xlink="http://www.w3.org/1999/xlink" x="0px" y="0px"
	 viewBox="0 0 512.003 512.003" style="enable-background:new 0 0 512.003 512.003;" xml:space="preserve">
<g>
	<g>
		<path d="M373.336,0.002h-320c-1.707,0.149-3.467,0.085-5.205,0.245C20.439,3.62-0.289,27.275,0.003,55.17v328.832
			c0,23.564,19.103,42.667,42.667,42.667s42.667-19.102,42.667-42.667v-10.667h32v69.333c0.029,26.497,21.503,47.971,48,48
			c26.497-0.029,47.971-21.503,48-48v-16h32v-21.333H202.67c-5.891,0-10.667,4.776-10.667,10.667v26.667
			c0,14.728-11.939,26.667-26.667,26.667c-14.728,0-26.667-11.939-26.667-26.667v-80c0-5.891-4.776-10.667-10.667-10.667H74.67
			c-5.891,0-10.667,4.776-10.667,10.667v21.333c0,11.782-9.551,21.333-21.333,21.333c-11.782,0-21.333-9.551-21.333-21.333V55.17
			c-0.369-16.921,12.027-31.42,28.8-33.685c1.067-0.149,2.133-0.149,3.2-0.149h0.48c7.795,0.089,15.283,3.048,21.035,8.309
			c6.672,6.07,10.478,14.67,10.485,23.691c0,5.891,4.776,10.667,10.667,10.667h320c5.891,0,10.667-4.776,10.667-10.667
			C426.634,23.894,402.777,0.037,373.336,0.002z M105.603,42.668c-1.588-7.732-4.866-15.017-9.6-21.333h277.333
			c13.557,0.017,25.639,8.558,30.176,21.333H105.603z"/>
	</g>
</g>
<g>
	<g>
		<path d="M416.003,106.668H202.67c-17.673,0-32,14.327-32,32v64c0,17.673,14.327,32,32,32h213.333c17.673,0,32-14.327,32-32v-64
			C448.003,120.995,433.676,106.668,416.003,106.668z M426.67,202.668c0,5.891-4.776,10.667-10.667,10.667H202.67
			c-5.891,0-10.667-4.776-10.667-10.667v-64c0-5.891,4.776-10.667,10.667-10.667h213.333c5.891,0,10.667,4.776,10.667,10.667
			V202.668z"/>
	</g>
</g>
<g>
	<g>
		<path d="M181.336,160.002v-21.333h-21.333c-5.891,0-10.667,4.776-10.667,10.667v42.667c0,5.891,4.776,10.667,10.667,10.667h21.333
			v-21.333H170.67v-21.333H181.336z"/>
	</g>
</g>
<g>
	<g>
		<path d="M458.67,138.668h-21.333v21.333h10.667v21.333h-10.667v21.333h21.333c5.891,0,10.667-4.776,10.667-10.667v-42.667
			C469.336,143.444,464.561,138.668,458.67,138.668z"/>
	</g>
</g>
<g>
	<g>
		<path d="M480.003,160.002h-42.667v21.333h42.667c5.891,0,10.667,4.776,10.667,10.667v53.333c0,5.891-4.776,10.667-10.667,10.667
			h-128c-29.441,0.035-53.298,23.893-53.333,53.333v42.667h21.333v-42.667c0-17.673,14.327-32,32-32h128c17.673,0,32-14.327,32-32
			v-53.333C512.003,174.328,497.676,160.002,480.003,160.002z"/>
	</g>
</g>
<g>
	<g>
		<path d="M341.336,341.335h-64c-5.891,0-10.667,4.776-10.667,10.667v117.333c0,23.564,19.102,42.667,42.667,42.667
			s42.667-19.102,42.667-42.667V352.002C352.003,346.111,347.227,341.335,341.336,341.335z M330.67,469.335
			c0,11.782-9.551,21.333-21.333,21.333c-11.782,0-21.333-9.551-21.333-21.333V362.668h42.667V469.335z"/>
	</g>
</g>
<g>
	<g>
		<rect x="362.67" y="53.335" width="21.333" height="32"/>
	</g>
</g>
<g>
	<g>
		<rect x="192.003" y="256.002" width="21.333" height="74.667"/>
	</g>
</g>
<g>
	<g>
		<rect x="192.003" y="352.002" width="21.333" height="21.333"/>
	</g>
</g>
<g>
	<g>
		<rect x="74.67" y="128.002" width="21.333" height="138.667"/>
	</g>
</g>
<g>
	<g>
		<rect x="74.67" y="288.002" width="21.333" height="21.333"/>
	</g>
</g>
<g>
	<g>
		<rect x="384.003" y="170.668" width="21.333" height="21.333"/>
	</g>
</g>
<g>
	<g>
		<rect x="341.336" y="170.668" width="21.333" height="21.333"/>
	</g>
</g>
<g>
	<g>
		<rect x="277.336" y="448.002" width="64" height="21.333"/>
	</g>
</g>
<g>
</g>
<g>
</g>
<g>
</g>
<g>
</g>
<g>
</g>
<g>
</g>
<g>
</g>
<g>
</g>
<g>
</g>
<g>
</g>
<g>
</g>
<g>
</g>
<g>
</g>
<g>
</g>
<g>
</g>
</svg>
