<?xml version="1.0"?>
<svg xmlns="http://www.w3.org/2000/svg" xmlns:xlink="http://www.w3.org/1999/xlink" xmlns:svgjs="http://svgjs.com/svgjs" version="1.1" width="512" height="512" x="0" y="0" viewBox="0 0 512 512" style="enable-background:new 0 0 512 512" xml:space="preserve"><g>
<linearGradient xmlns="http://www.w3.org/2000/svg" id="SVGID_1_" gradientUnits="userSpaceOnUse" x1="256.2561" y1="501.9138" x2="256.2561" y2="13.4247" gradientTransform="matrix(0.9992 0 0 -0.9992 -0.0411 513.4531)"><stop stop-opacity="1" stop-color="#4568dc" offset="0"/><stop stop-opacity="1" stop-color="#b06ab3" offset="1"/></linearGradient>
<path xmlns="http://www.w3.org/2000/svg" style="fill:url(#SVGID_1_);" d="M512,234.276L256,11.96L0,234.276l26.206,30.176l23.967-20.814V440.09  c0,33.056,26.893,59.95,59.95,59.95h111.906V304.204h69.941V500.04h109.908c33.056,0,59.95-26.893,59.95-59.95V243.639  l23.967,20.814L512,234.276z M421.861,440.09c0,11.019-8.965,19.983-19.983,19.983h-69.941V264.238H182.062v195.836h-71.94  c-11.019,0-19.983-8.964-19.983-19.983V208.931L256,64.894l165.861,144.037V440.09z" fill=""/>
<g xmlns="http://www.w3.org/2000/svg">
</g>
<g xmlns="http://www.w3.org/2000/svg">
</g>
<g xmlns="http://www.w3.org/2000/svg">
</g>
<g xmlns="http://www.w3.org/2000/svg">
</g>
<g xmlns="http://www.w3.org/2000/svg">
</g>
<g xmlns="http://www.w3.org/2000/svg">
</g>
<g xmlns="http://www.w3.org/2000/svg">
</g>
<g xmlns="http://www.w3.org/2000/svg">
</g>
<g xmlns="http://www.w3.org/2000/svg">
</g>
<g xmlns="http://www.w3.org/2000/svg">
</g>
<g xmlns="http://www.w3.org/2000/svg">
</g>
<g xmlns="http://www.w3.org/2000/svg">
</g>
<g xmlns="http://www.w3.org/2000/svg">
</g>
<g xmlns="http://www.w3.org/2000/svg">
</g>
<g xmlns="http://www.w3.org/2000/svg">
</g>
</g></svg>
