<?xml version="1.0"?>
<svg xmlns="http://www.w3.org/2000/svg" xmlns:xlink="http://www.w3.org/1999/xlink" xmlns:svgjs="http://svgjs.com/svgjs" version="1.1" width="512" height="512" x="0" y="0" viewBox="0 0 489.889 489.889" style="enable-background:new 0 0 512 512" xml:space="preserve" class=""><g>
<linearGradient xmlns="http://www.w3.org/2000/svg" id="SVGID_1_" gradientUnits="userSpaceOnUse" x1="-1.7516" y1="604.0291" x2="-1.7516" y2="520.8041" gradientTransform="matrix(5.2245 0 0 -5.2245 254.0954 3183.2839)"><stop stop-opacity="1" stop-color="#4568dc" offset="0"/><stop stop-opacity="1" stop-color="#b06ab3" offset="1"/></linearGradient>
<path xmlns="http://www.w3.org/2000/svg" style="fill:url(#SVGID_1_);" d="M484.656,244.487L257.391,31.85c-5.747-5.747-15.151-5.747-21.42,0L5.048,244.487  c-6.269,5.747-6.792,15.673-1.045,21.943c3.135,3.135,7.314,5.224,11.494,5.224c3.657,0,7.837-1.567,10.449-4.18l32.914-30.302  v209.502c0,8.882,6.792,15.673,15.673,15.673h117.029c8.882,0,15.673-6.792,15.673-15.673v-98.743h78.89v98.743  c0,8.882,6.792,15.673,15.673,15.673H419.35c8.882,0,15.673-6.792,15.673-15.673V240.83l28.735,26.645  c6.269,5.747,16.196,5.747,21.943-0.522C491.448,260.161,491.448,250.234,484.656,244.487z M403.676,431.001h-86.204v-98.743  c0-8.882-6.792-15.673-15.673-15.673H191.562c-8.882,0-15.673,6.792-15.673,15.673v98.743H90.207V208.438L246.942,64.765  l156.735,146.808V431.001z" fill=""/>
<g xmlns="http://www.w3.org/2000/svg">
</g>
<g xmlns="http://www.w3.org/2000/svg">
</g>
<g xmlns="http://www.w3.org/2000/svg">
</g>
<g xmlns="http://www.w3.org/2000/svg">
</g>
<g xmlns="http://www.w3.org/2000/svg">
</g>
<g xmlns="http://www.w3.org/2000/svg">
</g>
<g xmlns="http://www.w3.org/2000/svg">
</g>
<g xmlns="http://www.w3.org/2000/svg">
</g>
<g xmlns="http://www.w3.org/2000/svg">
</g>
<g xmlns="http://www.w3.org/2000/svg">
</g>
<g xmlns="http://www.w3.org/2000/svg">
</g>
<g xmlns="http://www.w3.org/2000/svg">
</g>
<g xmlns="http://www.w3.org/2000/svg">
</g>
<g xmlns="http://www.w3.org/2000/svg">
</g>
<g xmlns="http://www.w3.org/2000/svg">
</g>
</g></svg>
