<?xml version="1.0"?>
<svg xmlns="http://www.w3.org/2000/svg" xmlns:xlink="http://www.w3.org/1999/xlink" xmlns:svgjs="http://svgjs.com/svgjs" version="1.1" width="512" height="512" x="0" y="0" viewBox="0 0 64 64" style="enable-background:new 0 0 512 512" xml:space="preserve" class=""><g><linearGradient xmlns="http://www.w3.org/2000/svg" id="New_Gradient_Swatch_3" gradientUnits="userSpaceOnUse" x1="32" x2="32" y1="65.92" y2=".035"><stop stop-opacity="1" stop-color="#4568dc" offset="0"/><stop stop-opacity="1" stop-color="#b06ab3" offset="1"/></linearGradient><g xmlns="http://www.w3.org/2000/svg" id="Setting" fill="url(#New_Gradient_Swatch_3)"><path d="m36 62h-8a3 3 0 0 1 -3-3v-5.433a.982.982 0 0 0 -.631-.923c-.519-.192-1.047-.411-1.566-.65a.986.986 0 0 0 -1.1.206l-3.846 3.838a2.968 2.968 0 0 1 -2.121.885 2.973 2.973 0 0 1 -2.126-.891l-5.647-5.645a2.984 2.984 0 0 1 0-4.249l3.837-3.838a.981.981 0 0 0 .206-1.1q-.352-.77-.65-1.567a.976.976 0 0 0 -.92-.631h-5.436a3 3 0 0 1 -3-3v-8.002a3 3 0 0 1 3-3h5.433a.979.979 0 0 0 .923-.63q.3-.8.65-1.567a.982.982 0 0 0 -.206-1.1l-3.838-3.847a2.985 2.985 0 0 1 0-4.248l5.646-5.645a2.968 2.968 0 0 1 2.121-.886 2.972 2.972 0 0 1 2.127.89l3.844 3.833a.981.981 0 0 0 1.1.206c.518-.239 1.049-.459 1.576-.653a.966.966 0 0 0 .624-.908v-5.445a3 3 0 0 1 3-3h8a3 3 0 0 1 3 3v5.433a.984.984 0 0 0 .632.924c.523.193 1.051.412 1.565.649a.983.983 0 0 0 1.1-.206l3.846-3.838a2.964 2.964 0 0 1 2.121-.885 2.973 2.973 0 0 1 2.126.891l5.645 5.645a2.984 2.984 0 0 1 -.005 4.249l-3.83 3.838a.981.981 0 0 0 -.206 1.1c.241.526.462 1.057.654 1.581a.96.96 0 0 0 .9.617h5.452a3 3 0 0 1 3 3v8a3 3 0 0 1 -3 3h-5.433a.979.979 0 0 0 -.923.63q-.3.8-.65 1.567a.982.982 0 0 0 .206 1.1l3.838 3.847a2.985 2.985 0 0 1 0 4.248l-5.646 5.645a2.968 2.968 0 0 1 -2.121.886 2.972 2.972 0 0 1 -2.127-.89l-3.844-3.831a.986.986 0 0 0 -1.1-.206c-.512.236-1.037.454-1.57.651a.972.972 0 0 0 -.63.915v5.44a3 3 0 0 1 -3 3zm-13.591-12.091a2.944 2.944 0 0 1 1.232.269q.695.321 1.42.589a2.988 2.988 0 0 1 1.939 2.8v5.433a1 1 0 0 0 1 1h8a1 1 0 0 0 1-1v-5.44a2.978 2.978 0 0 1 1.935-2.791c.483-.179.959-.376 1.424-.591a2.993 2.993 0 0 1 3.351.606l3.846 3.838a.986.986 0 0 0 .709.3.985.985 0 0 0 .7-.3l5.655-5.655a.985.985 0 0 0 .005-1.411l-3.841-3.846a2.989 2.989 0 0 1 -.606-3.35q.321-.7.589-1.422a2.988 2.988 0 0 1 2.8-1.938h5.433a1 1 0 0 0 1-1v-8a1 1 0 0 0 -1-1h-5.449a2.967 2.967 0 0 1 -2.78-1.926q-.269-.732-.593-1.435a2.988 2.988 0 0 1 .606-3.349l3.838-3.847a.984.984 0 0 0 .005-1.412l-5.654-5.654a.99.99 0 0 0 -.707-.3.977.977 0 0 0 -.7.3l-3.856 3.839a2.989 2.989 0 0 1 -3.351.606q-.694-.321-1.42-.589a2.989 2.989 0 0 1 -1.939-2.8v-5.433a1 1 0 0 0 -1-1h-8a1 1 0 0 0 -1 1v5.448a2.971 2.971 0 0 1 -1.93 2.785q-.729.268-1.429.592a2.99 2.99 0 0 1 -3.351-.606l-3.846-3.841a.986.986 0 0 0 -.709-.3.985.985 0 0 0 -.7.295l-5.658 5.654a.985.985 0 0 0 -.005 1.411l3.844 3.852a2.989 2.989 0 0 1 .606 3.35q-.321.7-.589 1.422a2.988 2.988 0 0 1 -2.8 1.938h-5.433a1 1 0 0 0 -1 1v8a1 1 0 0 0 1 1h5.439a2.985 2.985 0 0 1 2.8 1.939q.267.724.589 1.422a2.988 2.988 0 0 1 -.606 3.349l-3.844 3.847a.984.984 0 0 0 -.005 1.412l5.654 5.654a.99.99 0 0 0 .707.3.977.977 0 0 0 .7-.3l3.852-3.843a3 3 0 0 1 2.123-.871z" fill=""/><path d="m32 46a14 14 0 1 1 14-14 14.015 14.015 0 0 1 -14 14zm0-26a12 12 0 1 0 12 12 12.013 12.013 0 0 0 -12-12z" fill=""/></g></g></svg>
