<?xml version="1.0"?>
<svg xmlns="http://www.w3.org/2000/svg" xmlns:xlink="http://www.w3.org/1999/xlink" xmlns:svgjs="http://svgjs.com/svgjs" version="1.1" width="512" height="512" x="0" y="0" viewBox="0 0 512 512" style="enable-background:new 0 0 512 512" xml:space="preserve" class=""><g><linearGradient xmlns="http://www.w3.org/2000/svg" id="SVGID_1_" gradientUnits="userSpaceOnUse" x1="0" x2="512" y1="256" y2="256"><stop stop-opacity="1" stop-color="#4568dc" offset="0"/><stop stop-opacity="1" stop-color="#b06ab3" offset="1"/></linearGradient><path xmlns="http://www.w3.org/2000/svg" d="m492 186h-19.573c-7.704 0-14.624-4.707-17.604-11.924-3.044-7.319-1.737-16.167 3.713-21.617l13.839-13.839c7.746-7.448 7.746-20.837 0-28.284l-70.712-70.71c-7.447-7.748-20.837-7.746-28.284 0l-13.838 13.838c-5.449 5.45-14.298 6.757-21.551 3.74-7.284-3.007-11.99-9.927-11.99-17.631v-19.573c0-11.046-8.954-20-20-20h-100c-11.046 0-20 8.954-20 20v19.573c0 7.704-4.706 14.624-11.932 17.607-7.319 3.044-16.159 1.733-21.609-3.716l-13.838-13.838c-7.448-7.746-20.837-7.747-28.284 0l-70.712 70.71c-7.81 7.81-7.811 20.474 0 28.284l13.839 13.839c5.449 5.45 6.792 14.21 3.739 21.55-3.006 7.284-9.927 11.991-17.63 11.991h-19.573c-11.046 0-20 8.954-20 20v100c0 11.046 8.954 20 20 20h19.573c7.703 0 14.832 5.208 17.851 12.521 3.044 7.319 1.489 15.57-3.961 21.02l-13.838 13.839c-7.811 7.811-7.81 20.474 0 28.284l70.712 70.71c7.447 7.748 20.837 7.746 28.284 0l13.838-13.838c5.449-5.45 14.297-6.757 21.551-3.74 7.284 3.007 11.99 9.927 11.99 17.631v19.573c0 11.046 8.954 20 20 20h100c11.046 0 20-8.954 20-20v-19.573c0-7.704 4.706-14.624 11.932-17.607 7.318-3.043 16.159-1.734 21.609 3.716l13.838 13.838c7.448 7.746 20.837 7.747 28.284 0l70.712-70.71c7.746-7.448 7.746-20.837-.001-28.285l-13.838-13.837c-5.45-5.45-7.004-13.701-3.951-21.042 3.007-7.284 10.138-12.5 17.842-12.5h19.573c11.046 0 20-8.954 20-20v-100c0-11.046-8.954-20-20-20zm-20 100.001c-23.79.169-45.173 14.911-54.355 37.158-9.234 22.201-4.4 47.414 12.305 64.362l-42.429 42.428c-16.946-16.705-42.525-21.39-64.792-12.127-22.18 9.155-36.558 30.388-36.727 54.178h-60.004c-.169-23.79-14.919-45.178-37.157-54.356-22.203-9.234-47.415-4.399-64.361 12.306l-42.429-42.429c16.705-16.947 21.54-42.16 12.313-64.34-9.155-22.181-30.575-37.01-54.364-37.18v-60.003c23.789-.169 45.022-14.547 54.165-36.698 9.235-22.201 4.591-47.874-12.114-64.821l42.429-42.429c16.946 16.705 42.161 21.538 64.429 12.277 22.18-9.155 36.921-30.539 37.09-54.328h60.004c.169 23.79 14.547 45.023 36.785 54.202 22.203 9.234 47.786 4.554 64.733-12.151l42.429 42.428c-16.705 16.947-21.354 42.612-12.128 64.792 9.155 22.18 30.389 36.558 54.179 36.728v60.003zm-216-150.001c-66.168 0-120 53.832-120 120 6.592 159.196 233.433 159.15 240-.001 0-66.167-53.832-119.999-120-119.999zm0 200c-44.112 0-80-35.888-80-80 4.394-106.131 155.622-106.1 160 .001 0 44.111-35.888 79.999-80 79.999z" fill="url(#SVGID_1_)" data-original="url(#SVGID_1_)" style=""/></g></svg>
